<?xml version="1.0" standalone="no"?>
<!DOCTYPE svg PUBLIC "-//W3C//DTD SVG 20010904//EN"
 "http://www.w3.org/TR/2001/REC-SVG-20010904/DTD/svg10.dtd">
<svg version="1.0" xmlns="http://www.w3.org/2000/svg"
 width="1782.000000pt" height="1782.000000pt" viewBox="0 0 1782.000000 1782.000000"
 preserveAspectRatio="xMidYMid meet">
<metadata>
Created by potrace 1.14, written by Peter Selinger 2001-2017
</metadata>
<g transform="translate(0.000000,1782.000000) scale(0.100000,-0.100000)"
fill="#000000" stroke="none">
<path d="M3240 14580 l0 -810 810 0 810 0 0 -810 0 -810 -810 0 -810 0 0 -810
0 -810 -810 0 -810 0 0 -810 0 -810 -810 0 -810 0 0 -2430 0 -2430 810 0 810
0 0 1620 0 1620 810 0 810 0 0 -1620 0 -1620 810 0 810 0 0 -810 0 -810 1620
0 1620 0 0 810 0 810 -1620 0 -1620 0 0 810 0 810 4050 0 4050 0 0 -810 0
-810 -1620 0 -1620 0 0 -810 0 -810 1620 0 1620 0 0 810 0 810 810 0 810 0 0
1620 0 1620 810 0 810 0 0 -1620 0 -1620 810 0 810 0 0 2430 0 2430 -810 0
-810 0 0 810 0 810 -810 0 -810 0 0 810 0 810 -810 0 -810 0 0 810 0 810 810
0 810 0 0 810 0 810 -810 0 -810 0 0 -810 0 -810 -810 0 -810 0 0 -810 0 -810
-2430 0 -2430 0 0 810 0 810 -810 0 -810 0 0 810 0 810 -810 0 -810 0 0 -810z
m3240 -4860 l0 -810 -810 0 -810 0 0 810 0 810 810 0 810 0 0 -810z m6480 0
l0 -810 -810 0 -810 0 0 810 0 810 810 0 810 0 0 -810z"/>
</g>
</svg>
